<?xml version="1.0" encoding="utf-8"?>
<!-- Generator: Adobe Illustrator 27.3.1, SVG Export Plug-In . SVG Version: 6.00 Build 0)  -->
<svg version="1.1"
	 id="svg8" xmlns:svg="http://www.w3.org/2000/svg" xmlns:dc="http://purl.org/dc/elements/1.1/" xmlns:cc="http://creativecommons.org/ns#" xmlns:rdf="http://www.w3.org/1999/02/22-rdf-syntax-ns#"
	 xmlns="http://www.w3.org/2000/svg" xmlns:xlink="http://www.w3.org/1999/xlink" x="0px" y="0px" viewBox="0 0 1113.5 406"
	 style="enable-background:new 0 0 1113.5 406;" xml:space="preserve">
<style type="text/css">
	.st0{fill:#FFFFFF;}
	.st1{fill:#003CC8;}
	.st2{font-family:'Jost-SemiBold';}
	.st3{font-size:125.3231px;}
	.st4{letter-spacing:1;}
	.st5{fill:#F7DA4D;}
</style>
<g id="layer2" transform="translate(-1469.5454,-21849.07)">
	<g id="g91">
		<rect id="rect2" x="1469.5" y="21849.1" class="st0" width="1113.5" height="406"/>
		<g id="g90" transform="translate(-8.6059044)">
			<text transform="matrix(1 0 0 1 1887.2842 22043.9297)" class="st1 st2 st3 st4">Omuganda </text>
			<text transform="matrix(1 0 0 1 1887.2842 22156.7246)" class="st1 st2 st3 st4">Kika</text>
			<g id="g88" transform="translate(-214.06296,736.15465)">
				<circle id="circle2" class="st1" cx="1898.1" cy="21315.9" r="135.9"/>
				<path id="path88" class="st5" d="M1955.2,21192.5c-9.2,5.7-17.1,12.2-21.2,19.3c-8.6,14.9-1.2,34.1,2.4,52.3l42.6-57.4
					C1971.6,21201.2,1963.6,21196.4,1955.2,21192.5z M1936.4,21264.1l-38.4,51.7c14.6-4.4,29.1-8.8,36-20.8
					C1939.3,21285.9,1938.5,21275.2,1936.4,21264.1z M1898,21315.8c-14.5,4.4-29.1,8.8-36,20.8c-5.3,9.1-4.5,19.8-2.4,30.9
					L1898,21315.8z M1859.6,21367.5l-42.6,57.4c7.4,5.5,15.4,10.3,23.8,14.2c9.1-5.7,17.1-12.2,21.2-19.2
					C1870.6,21404.9,1863.1,21385.7,1859.6,21367.5L1859.6,21367.5z M2029.3,21280.6l-0.4,0.5c0.1-0.1,0.3-0.1,0.4-0.1
					C2029.3,21280.8,2029.3,21280.7,2029.3,21280.6L2029.3,21280.6z M2028.9,21281c-12.2,3.7-24.4,7.4-30.2,17.4
					c-4.4,7.6-3.8,16.6-2,25.9L2028.9,21281z M1996.8,21324.3l-58.4,78.6c0,0,48.7-14.7,60.3-34.8
					C2005.9,21355.6,1999.7,21339.6,1996.8,21324.3z"/>
			</g>
		</g>
	</g>
</g>
</svg>
